<?xml version="1.0" encoding="UTF-8"?>
<svg width="35px" height="22px" viewBox="0 0 35 22" version="1.1" xmlns="http://www.w3.org/2000/svg" xmlns:xlink="http://www.w3.org/1999/xlink">
    <!-- Generator: Sketch 53.2 (72643) - https://sketchapp.com -->
    <title>Group 7</title>
    <desc>Created with Sketch.</desc>
    <g id="P2---Book-Info-&amp;-Coin-Purchase" stroke="none" stroke-width="1" fill="none" fill-rule="evenodd">
        <g id="Change-bank-info" transform="translate(-372.000000, -388.000000)">
            <g id="Group-7" transform="translate(372.000000, 388.000000)">
                <rect id="Rectangle-4" stroke="#C8C8C8" stroke-width="0.5" fill="#FFFFFF" x="0.25" y="0.25" width="34.5" height="21.5" rx="1.85625"></rect>
                <g id="Group-6" transform="translate(8.000000, 2.000000)">
                    <rect id="Rectangle" fill="#0077A6" x="0.552910053" y="0" width="18.0952381" height="18"></rect>
                    <g id="Group" transform="translate(0.000000, 6.300000)" fill="#FFFFFF" fill-rule="nonzero">
                        <polygon id="Path" points="1.66638636 1.55432941 2.32698182 1.55432941 1.99677045 0.752623529"></polygon>
                        <polygon id="Path" points="5.17948636 4.24558235 5.17948636 4.61785882 6.29051136 4.61785882 6.29051136 5.01879412 5.17948636 5.01879412 5.17948636 5.44838824 6.41055682 5.44838824 6.98103182 4.84696471 6.44061136 4.24558235"></polygon>
                        <polygon id="Path" points="13.8569591 0.752623529 13.4966068 1.55432941 14.1873 1.55432941"></polygon>
                        <polygon id="Path" points="8.3923 5.67720588 8.3923 4.04521765 7.61157273 4.84696471"></polygon>
                        <path d="M9.86359091,4.50338824 C9.83353636,4.3316 9.71331818,4.24558235 9.53307727,4.24558235 L8.90266591,4.24558235 L8.90266591,4.76094707 L9.56330455,4.76094706 C9.74341591,4.76098824 9.86359091,4.67513529 9.86359091,4.50338824 Z" id="Path"></path>
                        <path d="M11.96525,4.70383529 C12.0253159,4.67513529 12.0554568,4.58915882 12.0554568,4.50342941 C12.0855114,4.389 12.0253159,4.33164118 11.96525,4.30298235 C11.9053568,4.27432353 11.81515,4.27432353 11.7252023,4.27432353 L11.1245432,4.27432353 L11.1245432,4.73249412 L11.7251591,4.73249412 C11.8151068,4.73249412 11.9053136,4.73249412 11.96525,4.70383529 Z" id="Path"></path>
                        <path d="M16.2889159,0.00815294118 L16.2889159,0.351729412 L16.1088909,0.00815294118 L14.6977955,0.00815294118 L14.6977955,0.351729412 L14.5175545,0.00815294118 L12.5958773,0.00815294118 C12.2656227,0.00815294118 11.9952614,0.0654705882 11.7551705,0.179982353 L11.7551705,0.00815294118 L10.4040545,0.00815294118 L10.4040545,0.0368117647 L10.4040545,0.179982353 C10.2539545,0.0655117647 10.0738,0.00815294118 9.83357955,0.00815294118 L4.999375,0.00815294118 L4.66894773,0.723964706 L4.33873636,0.00815294118 L3.25785227,0.00815294118 L2.80742273,0.00815294118 L2.80742273,0.351729412 L2.65727955,0.00815294118 L2.627225,0.00815294118 L1.33613182,0.00815294118 L0.735515909,1.3538 L0.0449954545,2.814 L0.0323,2.8427 L0.0449954545,2.8427 L1.57635227,2.8427 L1.595525,2.8427 L1.60640682,2.814 L1.78664773,2.38461176 L2.17696818,2.38461176 L2.35712273,2.8427 L4.09847273,2.8427 L4.09847273,2.814 L4.09847273,2.49912353 L4.24870227,2.84265882 L5.11937727,2.84265882 L5.26943409,2.49912353 L5.26943409,2.814 L5.26943409,2.8427 L5.96004091,2.8427 L9.413075,2.8427 L9.44312955,2.8427 L9.44312955,2.09822941 L9.503325,2.09822941 C9.56330455,2.09822941 9.56330455,2.09822941 9.56330455,2.18416471 L9.56330455,2.81404118 L11.7252023,2.81404118 L11.7252023,2.64225294 C11.9053568,2.72827059 12.1754159,2.81404118 12.5357682,2.81404118 L13.4366705,2.81404118 L13.616825,2.35603529 L14.0370705,2.35603529 L14.217225,2.81404118 L15.9586614,2.81404118 L15.9586614,2.52778235 L15.9586614,2.38465294 L16.2290227,2.81404118 L16.2889159,2.81404118 L16.3190568,2.81404118 L17.6402045,2.81404118 L17.6402045,0.00815294118 L16.2890023,0.00815294118 L16.2890023,0.00815294118 L16.2889159,0.00815294118 L16.2889159,0.00815294118 Z M6.11027045,2.41331176 L5.80994091,2.41331176 L5.62982955,2.41331176 L5.62982955,2.24164706 L5.62982955,0.838517647 L5.599775,0.904194118 L5.599775,0.903411765 L4.90126591,2.41331176 L4.87915682,2.41331176 L4.71856364,2.41331176 L4.45873864,2.41331176 L3.73816364,0.838517647 L3.73816364,2.41331176 L2.71734545,2.41331176 L2.50717955,1.98384118 L1.48618864,1.98384118 L1.27597955,2.41331176 L0.748168182,2.41331176 L1.63641818,0.409047059 L2.38700455,0.409047059 L3.22771136,2.32733529 L3.22771136,0.409047059 L3.40782273,0.409047059 L4.02320682,0.409047059 L4.03737045,0.437747059 L4.03840682,0.437747059 L4.41724091,1.22397059 L4.68928636,1.81304118 L4.69891591,1.78335294 L5.29940227,0.409088235 L6.11022727,0.409088235 L6.11027045,2.41331176 L6.11027045,2.41331176 L6.11027045,2.41331176 Z M8.18213409,0.838517647 L7.01108636,0.838517647 L7.01108636,1.21071176 L8.15207955,1.21071176 L8.15207955,1.61152353 L7.01108636,1.61152353 L7.01108636,2.0125 L8.18213409,2.0125 L8.18213409,2.44184706 L6.50067727,2.44184706 L6.50067727,0.409088235 L8.18213409,0.409088235 L8.18213409,0.838517647 L8.18213409,0.838517647 Z M10.3237364,1.57681176 C10.3245136,1.57747059 10.3255068,1.57792353 10.3264568,1.57854118 C10.3378136,1.58998824 10.3475295,1.60147647 10.3558205,1.61247059 C10.4133386,1.68436471 10.4598455,1.7913 10.4621773,1.9481 C10.46235,1.95081765 10.4624795,1.95349412 10.4626523,1.95621176 C10.4626523,1.95777647 10.4629545,1.95913529 10.4629545,1.96074118 C10.4629545,1.96164706 10.4628682,1.96234706 10.4628682,1.96321176 C10.4635591,1.97898235 10.4639909,1.99508235 10.4639909,2.0125 L10.4639909,2.41335294 L10.0136909,2.41335294 L10.0136909,2.18420588 C10.0136909,2.06969412 10.0136909,1.89786471 9.92348409,1.78335294 C9.89511364,1.7563 9.86639773,1.73847059 9.83513409,1.72578824 C9.79013864,1.69799412 9.70485455,1.69754118 9.56330455,1.69754118 L9.02266818,1.69754118 L9.02266818,2.41335294 L8.51234545,2.41335294 L8.51234545,0.409088235 L9.653425,0.409088235 C9.92348409,0.409088235 10.103725,0.409088235 10.2539114,0.494982353 C10.4010318,0.579229412 10.4899,0.718941176 10.4932682,0.940182353 C10.4863159,1.24488824 10.2812023,1.41206471 10.1337364,1.46843529 C10.1337364,1.46843529 10.2339182,1.48766471 10.3237364,1.57681176 Z M11.3348386,2.41331176 L10.8243432,2.41331176 L10.8243432,0.409047059 L11.3348386,0.409047059 L11.3348386,2.41331176 Z M17.1899477,2.41331176 L16.5292659,2.41331176 L15.5684705,0.895752941 L15.5684705,2.15554706 L15.5653182,2.15258235 L15.5653182,2.41454706 L15.0580614,2.41454706 L15.0580614,2.41335294 L14.5475659,2.41335294 L14.3674114,1.98388235 L13.3164091,1.98388235 L13.1362545,2.44188824 L12.5657795,2.44188824 C12.3257318,2.44188824 12.0252727,2.38469412 11.8452045,2.21290588 C11.66505,2.04111765 11.5750591,1.81205294 11.5750591,1.4399 C11.5750591,1.1536 11.6350386,0.867094118 11.8452045,0.638111765 C11.9952182,0.4662 12.2655795,0.409088235 12.5957909,0.409088235 L13.0763182,0.409088235 L13.0763182,0.838517647 L12.5957909,0.838517647 C12.4156364,0.838517647 12.3257318,0.867052941 12.2053841,0.953111765 C12.1154795,1.03896471 12.0553705,1.21071176 12.0553705,1.41111765 C12.0553705,1.64022353 12.085425,1.78335294 12.2053841,1.89786471 C12.2956773,1.98388235 12.4156795,2.01254118 12.5657795,2.01254118 L12.7759455,2.01254118 L13.4664659,0.437829412 L13.7668818,0.437829412 L14.2171818,0.437829412 L15.0580182,2.35611765 L15.0580182,2.25828235 L15.0580182,1.61160588 L15.0580182,1.55441176 L15.0580182,0.437870588 L15.8086045,0.437870588 L16.6791932,1.84075294 L16.6791932,0.437870588 L17.1898614,0.437870588 L17.1898614,2.41339412 L17.1899477,2.41339412 L17.1899477,2.41331176 L17.1899477,2.41331176 Z" id="Shape"></path>
                        <path d="M9.89558864,1.24381765 C9.90435455,1.23488235 9.9123,1.22475294 9.91903636,1.21314118 C9.94624091,1.17208824 9.97741818,1.09813529 9.96062045,0.997211765 C9.95992955,0.987947059 9.95815909,0.979382353 9.95608636,0.971105882 C9.955525,0.9688 9.95561136,0.966782353 9.95496364,0.964476471 L9.95466136,0.964517647 C9.93972045,0.915476471 9.90159091,0.885335294 9.86354773,0.867052941 C9.80335227,0.838517647 9.713275,0.838517647 9.62324091,0.838517647 L9.022625,0.838517647 L9.022625,1.29668824 L9.62324091,1.29668824 C9.713275,1.29668824 9.80339545,1.29668824 9.86354773,1.26798824 C9.87257273,1.26362353 9.88060455,1.25769412 9.88833409,1.25098235 L9.88842045,1.25135294 C9.88846364,1.25131176 9.89152955,1.24826471 9.89558864,1.24381765 Z" id="Path"></path>
                        <path d="M18.9613523,5.27651765 C18.9613523,5.07611176 18.9013727,4.87562353 18.8113386,4.73249412 L18.8113386,3.44412353 L18.8099568,3.44412353 L18.8099568,3.35810588 C18.8099568,3.35810588 17.5514227,3.35810588 17.3641,3.35810588 C17.1768636,3.35810588 16.9496409,3.52985294 16.9496409,3.52985294 L16.9496409,3.35810588 L15.5685136,3.35810588 C15.3582182,3.35810588 15.0881591,3.41542353 14.9678977,3.52985294 L14.9678977,3.35810588 L12.5058432,3.35810588 L12.5058432,3.44412353 L12.5058432,3.52981176 C12.3258182,3.38676471 11.9952614,3.35806471 11.8452477,3.35806471 L10.2238136,3.35806471 L10.2238136,3.44408235 L10.2238136,3.52977059 C10.0737136,3.38672353 9.71323182,3.35802353 9.53299091,3.35802353 L7.73170455,3.35802353 L7.31124318,3.78753529 L6.92087955,3.35802353 L6.79517727,3.35802353 L6.590625,3.35802353 L4.21864773,3.35802353 L4.21864773,3.44404118 L4.21864773,3.67022353 L4.21864773,6.24997059 L6.86094318,6.24997059 L7.29509318,5.83585882 L7.67142273,6.24997059 L7.70156364,6.24997059 L9.22406818,6.24997059 L9.29307273,6.24997059 L9.32312727,6.24997059 L9.35300909,6.24997059 L9.35300909,5.96367059 L9.35300909,5.59147647 L9.50323864,5.59147647 C9.71323182,5.59147647 9.98359318,5.59147647 10.1937591,5.50545882 L10.1937591,6.22118824 L10.1937591,6.27858824 L11.5449614,6.27858824 L11.5449614,6.22118824 L11.5449614,5.53411765 L11.6048545,5.53411765 C11.6950614,5.53411765 11.6950614,5.53411765 11.6950614,5.62001176 L11.6950614,6.22118824 L11.6950614,6.27858824 L15.7784636,6.27858824 C16.0489114,6.27858824 16.3189705,6.22118824 16.4690705,6.10667647 L16.4690705,6.22118824 L16.4690705,6.27858824 L17.7602932,6.27858824 C18.0303523,6.27858824 18.3008,6.24997059 18.4809545,6.13537647 C18.7574045,5.97721765 18.9316432,5.69725882 18.9575523,5.36335882 C18.9587614,5.35347647 18.9602727,5.34359412 18.9612227,5.33367059 L18.9594523,5.33206471 C18.960575,5.31353529 18.9613523,5.29521176 18.9613523,5.27651765 Z M9.50328182,5.10477059 L8.90262273,5.10477059 L8.90262273,5.19045882 L8.90262273,5.36232941 L8.90262273,5.53415882 L8.90262273,5.84911765 L7.91570227,5.84911765 L7.34129773,5.21915882 L7.33931136,5.22125882 L7.31124318,5.19045882 L6.65069091,5.84911765 L4.72905682,5.84911765 L4.72905682,3.84493529 L6.68074545,3.84493529 L7.21395455,4.40184706 L7.32605455,4.51845882 L7.34125455,4.50342941 L7.97188182,3.84497647 L9.56321818,3.84497647 C9.87205455,3.84497647 10.2178977,3.91765294 10.3489545,4.21729412 C10.3647159,4.27662941 10.3738705,4.34259412 10.3738705,4.41753529 C10.3738705,4.99013529 9.95349545,5.10477059 9.50328182,5.10477059 Z M12.5058432,5.07607059 C12.5658227,5.16175882 12.5958773,5.27647647 12.5958773,5.44834706 L12.5958773,5.84907647 L12.0855114,5.84907647 L12.0855114,5.59147647 C12.0855114,5.47675882 12.0855114,5.27647647 11.9953045,5.19045882 C11.9354114,5.10477059 11.81515,5.10477059 11.635125,5.10477059 L11.0947045,5.10477059 L11.0947045,5.84911765 L10.5842955,5.84911765 L10.5842955,3.81627647 L11.7252023,3.81627647 C11.96525,3.81627647 12.1754159,3.81627647 12.3258182,3.90208824 C12.4758318,3.98806471 12.5958773,4.13123529 12.5958773,4.3603 C12.5958773,4.67517647 12.3857977,4.84696471 12.2356114,4.90432353 C12.3857977,4.96135294 12.4758318,5.01879412 12.5058432,5.07607059 Z M14.5777068,4.24558235 L13.4065295,4.24558235 L13.4065295,4.61781765 L14.5475659,4.61781765 L14.5475659,5.01875294 L13.4065295,5.01875294 L13.4065295,5.41964706 L14.5777068,5.41964706 L14.5777068,5.84907647 L12.89625,5.84907647 L12.89625,3.81623529 L14.5777068,3.81623529 L14.5777068,4.24558235 Z M15.8387023,5.84911765 L14.8778205,5.84911765 L14.8778205,5.41968824 L15.8387023,5.41968824 C15.9286068,5.41968824 15.9888023,5.41968824 16.0489977,5.36237059 C16.0790523,5.33367059 16.1088909,5.27651765 16.1088909,5.2192 C16.1088909,5.1618 16.0790523,5.10481176 16.0489977,5.07611176 C16.0188568,5.04749412 15.9587045,5.01883529 15.8686705,5.01883529 C15.3882295,4.99017647 14.8177545,5.01883529 14.8177545,4.389 C14.8177545,4.10265882 14.9979091,3.78765882 15.5384159,3.78765882 L16.5292227,3.78765882 L16.5292227,4.27432353 L15.5984818,4.27432353 C15.5084477,4.27432353 15.4482955,4.27432353 15.3881864,4.30298235 C15.3282932,4.33168235 15.3282932,4.389 15.3282932,4.44619412 C15.3282932,4.53212941 15.3881864,4.56078824 15.4482523,4.5892 C15.5084477,4.6179 15.5684273,4.6179 15.6284068,4.6179 L15.8986818,4.6179 C16.1689568,4.6179 16.3490682,4.67517647 16.4691568,4.78972941 C16.5592773,4.87566471 16.6193432,5.01883529 16.6193432,5.2192 C16.6193432,5.64854706 16.3491114,5.84911765 15.8387023,5.84911765 Z M18.4209318,5.64854706 C18.3009727,5.76322353 18.0906773,5.84911765 17.7903045,5.84911765 L16.8296818,5.84911765 L16.8296818,5.41968824 L17.7902614,5.41968824 C17.8803818,5.41968824 17.9405773,5.41968824 18.0005568,5.36237059 C18.0304818,5.33367059 18.0606227,5.27651765 18.0606227,5.2192 C18.0606227,5.1618 18.0304818,5.10481176 18.0005568,5.07611176 C17.9705023,5.04749412 17.9105227,5.01883529 17.8204023,5.01883529 C17.3401341,4.99017647 16.7694864,5.01883529 16.7694864,4.38904118 C16.7694864,4.11690588 16.9327568,3.87108235 17.3354273,3.79807647 C17.383575,3.79173529 17.4344432,3.78765882 17.4901477,3.78765882 L18.4810841,3.78765882 L18.4810841,4.27432353 L17.8204023,4.27432353 L17.5802682,4.27432353 L17.5502136,4.27432353 C17.4600932,4.27432353 17.4001136,4.27432353 17.3401341,4.30298235 C17.3099068,4.33168235 17.2798523,4.389 17.2798523,4.44619412 C17.2798523,4.53212941 17.3099068,4.56078824 17.4001136,4.5892 C17.4600932,4.6179 17.5201591,4.6179 17.5802682,4.6179 L17.6101068,4.6179 L17.8504136,4.6179 C17.9816432,4.6179 18.080875,4.63334118 18.1716864,4.66377059 C18.2548545,4.69247059 18.5301818,4.80990588 18.5917591,5.11646471 C18.5971136,5.14858235 18.6010432,5.1821 18.6010432,5.2192 C18.6010432,5.39102941 18.5409773,5.53415882 18.4209318,5.64854706 Z" id="Shape"></path>
                    </g>
                </g>
            </g>
        </g>
    </g>
</svg>
