<svg xmlns="http://www.w3.org/2000/svg" xmlns:xlink="http://www.w3.org/1999/xlink" width="36" height="22" version="1.1" viewBox="0 0 36 22"><title>Group 11</title><desc>Created with Sketch.</desc><defs><path id="path-1" d="M16.053812,1.21432013 C14.6944903,1.21432013 13.5909037,2.30993663 13.5909037,3.65889387 C13.5909037,5.09558818 14.646739,6.1681737 16.053812,6.1681737 C17.4258674,6.1681737 18.5103535,5.08133091 18.5103535,3.68740842 C18.5103535,2.30335635 17.4332954,1.21432013 16.053812,1.21432013"/><polygon id="path-3" points="25.647 9.167 25.647 0 0 0 0 9.167"/></defs><g id="P1---Conversions-pages-&amp;-coin-LP" fill="none" fill-rule="evenodd" stroke="none" stroke-width="1"><g id="Step-3:-Payment-" transform="translate(-909.000000, -225.000000)"><g id="Group-9" transform="translate(729.000000, 190.000000)"><g id="Group-11" transform="translate(180.712329, 35.000000)"><rect id="Rectangle-4" width="34.788" height="21.5" x=".25" y=".25" fill="#FFF" stroke="#C8C8C8" stroke-width=".5" rx="1.856"/><g id="Group-2" transform="translate(3.308219, 2.200000)"><g id="Text"><path id="Fill-10" fill="#001722" d="M2.07433998,1.30534732 L0.751097102,1.30534732 L0.751097102,6.06069581 L2.06691199,6.06069581 C2.76726507,6.06069581 3.27130707,5.89070526 3.71486402,5.5123392 C4.24118997,5.0637835 4.55316544,4.38491802 4.55316544,3.68521499 C4.55316544,2.28142208 3.53447004,1.30534732 2.07433998,1.30534732 L2.07433998,1.30534732 Z M3.12805303,4.87734225 C2.84260609,5.14165014 2.47651243,5.25570831 1.893946,5.25570831 L1.65200584,5.25570831 L1.65200584,2.10923811 L1.893946,2.10923811 C2.47651243,2.10923811 2.82881125,2.216716 3.12805303,2.49418445 C3.43896735,2.78042659 3.62466703,3.22240202 3.62466703,3.67863471 C3.62466703,4.13596412 3.43896735,4.59329353 3.12805303,4.87734225 L3.12805303,4.87734225 Z"/><polygon id="Fill-12" fill="#001722" points="4.968 1.305 5.868 1.305 5.868 6.061 4.968 6.061"/><path id="Fill-13" fill="#001722" d="M8.07084798,3.12918139 C7.52966605,2.92299931 7.37049489,2.78700687 7.37049489,2.53147269 C7.37049489,2.23097327 7.65381955,2.00285693 8.04325831,2.00285693 C8.31278813,2.00285693 8.53456661,2.1169151 8.77013992,2.38670655 L9.2402254,1.75390303 C8.85397006,1.4029548 8.38919029,1.22528726 7.88302601,1.22528726 C7.06700856,1.22528726 6.44305763,1.8098354 6.44305763,2.58630835 C6.44305763,3.24323957 6.73381027,3.57883381 7.57847854,3.8935905 C7.9318385,4.02080923 8.11223248,4.10635286 8.20242947,4.16447866 C8.3817623,4.28621383 8.47302043,4.45620438 8.47302043,4.65580618 C8.47302043,5.04184923 8.17377866,5.32699467 7.77160621,5.32699467 C7.34290523,5.32699467 6.99697325,5.1054586 6.78898961,4.69199772 L6.20854546,5.26996558 C6.62239046,5.89728554 7.12112675,6.17585069 7.807685,6.17585069 C8.74255026,6.17585069 9.39939656,5.53317675 9.39939656,4.61413108 C9.39939656,3.85739897 9.09591022,3.51522444 8.07084798,3.12918139"/><path id="Fill-14" fill="#001722" d="M9.68378236,3.68521499 C9.68378236,5.08462105 10.749168,6.1681737 12.1212233,6.1681737 C12.5085398,6.1681737 12.8406769,6.08921035 13.2492162,5.89070526 L13.2492162,4.79947561 C12.8894894,5.17016468 12.570086,5.31931768 12.1615467,5.31931768 C11.2553322,5.31931768 10.6112196,4.64154891 10.6112196,3.67863471 C10.6112196,2.76616932 11.2754939,2.04562874 12.1212233,2.04562874 C12.5499243,2.04562874 12.8756946,2.20245873 13.2492162,2.58082479 L13.2492162,1.48849843 C12.8555329,1.28231635 12.5297626,1.19786943 12.1424461,1.19786943 C10.7778188,1.19786943 9.68378236,2.30335635 9.68378236,3.68521499"/><polyline id="Fill-15" fill="#001722" points="20.548 4.5 19.315 1.305 18.332 1.305 20.292 6.182 20.776 6.182 22.77 1.305 21.795 1.305 20.548 4.5"/><polyline id="Fill-16" fill="#001722" points="23.179 6.061 25.735 6.061 25.735 5.256 24.079 5.256 24.079 3.971 25.671 3.971 25.671 3.165 24.079 3.165 24.079 2.109 25.735 2.109 25.735 1.305 23.179 1.305 23.179 6.061"/><path id="Fill-17" fill="#001722" d="M29.2989744,2.70804352 C29.2989744,1.81751239 28.7047355,1.30534732 27.6658784,1.30534732 L26.3288407,1.30534732 L26.3288407,6.06069581 L27.2297494,6.06069581 L27.2297494,4.14912468 L27.3475361,4.14912468 L28.5933156,6.06069581 L29.7011469,6.06069581 L28.2463225,4.05700077 C28.9265139,3.91442805 29.2989744,3.43626109 29.2989744,2.70804352 L29.2989744,2.70804352 Z M27.4918512,3.49438689 L27.2297494,3.49438689 L27.2297494,2.05220902 L27.5067072,2.05220902 C28.0680508,2.05220902 28.3736594,2.29567935 28.3736594,2.75849233 C28.3736594,3.23556258 28.0680508,3.49438689 27.4918512,3.49438689 L27.4918512,3.49438689 Z"/><path id="Fill-18" fill="#231F20" d="M29.9518033,1.66741513 C29.9518033,1.57785917 29.8944109,1.53017353 29.7897543,1.53017353 L29.6502121,1.53017353 L29.6502121,1.97446412 L29.7526181,1.97446412 L29.7526181,1.80233059 L29.8730294,1.97446412 L30.0013182,1.97446412 L29.8572747,1.79069995 C29.9180431,1.77441705 29.9518033,1.72789447 29.9518033,1.66741513 L29.9518033,1.66741513 Z M29.7706235,1.72673141 L29.7526181,1.72673141 L29.7526181,1.61042497 L29.7728742,1.61042497 C29.8235145,1.61042497 29.848272,1.63136013 29.848272,1.66857819 C29.848272,1.70695932 29.8223891,1.72673141 29.7706235,1.72673141 L29.7706235,1.72673141 Z"/><path id="Fill-19" fill="#231F20" d="M29.8008941,1.37224683 C29.6045831,1.37224683 29.4454119,1.5356571 29.4454119,1.73854904 C29.4454119,1.9425377 29.6056442,2.10485126 29.8008941,2.10485126 C29.9940218,2.10485126 30.1510707,1.94034427 30.1510707,1.73854904 C30.1510707,1.53785053 29.9940218,1.37224683 29.8008941,1.37224683 L29.8008941,1.37224683 Z M29.8008941,2.03904846 C29.641723,2.03904846 29.5154472,1.90524945 29.5154472,1.73964576 C29.5154472,1.57184863 29.641723,1.43914634 29.8008941,1.43914634 C29.9536985,1.43914634 30.0799742,1.57513877 30.0799742,1.73964576 C30.0799742,1.90415274 29.9536985,2.03904846 29.8008941,2.03904846 L29.8008941,2.03904846 Z"/></g><mask id="mask-2" fill="#fff"><use xlink:href="#path-1"/></mask><use id="Clip-8" fill="#F58220" xlink:href="#path-1"/></g><g id="Page-1" transform="translate(6.419930, 10.816667)"><mask id="mask-4" fill="#fff"><use xlink:href="#path-3"/></mask><path id="Fill-1" fill="#F4811F" d="M25.6474971,0 C25.6474971,0 16.5895873,6.33252639 0,9.16666667 L25.6474971,9.16666667 L25.6474971,0 Z" mask="url(#mask-4)"/></g></g></g></g></g></svg>