<?xml version="1.0" encoding="UTF-8"?>
<svg width="37px" height="22px" viewBox="0 0 37 22" version="1.1" xmlns="http://www.w3.org/2000/svg" xmlns:xlink="http://www.w3.org/1999/xlink">
    <!-- Generator: Sketch 52.5 (67469) - http://www.bohemiancoding.com/sketch -->
    <title>Group 7</title>
    <desc>Created with Sketch.</desc>
    <defs>
        <polygon id="path-1" points="0.00595605126 2.82051282 21.9212166 2.82051282 21.9212166 0.0145457875 0.00595605126 0.0145457875"></polygon>
        <polygon id="path-3" points="0 18.2562527 23.3609566 18.2562527 23.3609566 8.05860806e-05 0 8.05860806e-05"></polygon>
    </defs>
    <g id="P1---Conversions-pages-&amp;-coin-LP" stroke="none" stroke-width="1" fill="none" fill-rule="evenodd">
        <g id="Step-3:-Payment-" transform="translate(-825.000000, -225.000000)">
            <g id="Group-9" transform="translate(729.000000, 190.000000)">
                <g id="Group-7" transform="translate(96.904110, 35.000000)">
                    <rect id="Rectangle" stroke="#C8C8C8" stroke-width="0.5" fill="#FFFFFF" x="0.25" y="0.25" width="34.7876712" height="21.5" rx="1.85625"></rect>
                    <g id="Mastercard-logo" transform="translate(5.513699, 2.200000)">
                        <g id="Group-3" transform="translate(1.203243, 15.435740)">
                            <mask id="mask-2" fill="white">
                                <use xlink:href="#path-1"></use>
                            </mask>
                            <g id="Clip-2"></g>
                            <path d="M19.4776312,1.75319048 C19.4776312,1.39015018 19.7064479,1.09963736 20.0760439,1.09963736 C20.4293962,1.09963736 20.6622236,1.37806227 20.6622236,1.75319048 C20.6622236,2.12831868 20.4293962,2.40674359 20.0760439,2.40674359 C19.7064479,2.40674359 19.4776312,2.11623077 19.4776312,1.75319048 Z M21.0316191,1.75319048 L21.0316191,0.0145457875 L20.6461804,0.0145457875 L20.6461804,1.02308059 C20.5136232,0.849619048 20.296839,0.740626374 20.0237029,0.740626374 C19.4856528,0.740626374 19.0759487,1.16430769 19.0759487,1.75319048 C19.0759487,2.34227473 19.4856528,2.76575458 20.0237029,2.76575458 C20.296839,2.76575458 20.5136232,2.6567619 20.6461804,2.48330037 L20.6461804,2.71740293 L21.0316191,2.71740293 L21.0316191,1.75319048 Z M15.6025882,1.75319048 C15.6025882,1.39015018 15.8314048,1.09963736 16.2008003,1.09963736 C16.5541526,1.09963736 16.7871806,1.37806227 16.7871806,1.75319048 C16.7871806,2.12831868 16.5541526,2.40674359 16.2008003,2.40674359 C15.8314048,2.40674359 15.6025882,2.11623077 15.6025882,1.75319048 Z M17.1565761,1.75319048 L17.1565761,0.788978022 L16.7711374,0.788978022 L16.7711374,1.02308059 C16.6385801,0.849619048 16.4217959,0.740626374 16.1486598,0.740626374 C15.6106098,0.740626374 15.2009057,1.16430769 15.2009057,1.75319048 C15.2009057,2.34227473 15.6106098,2.76575458 16.1486598,2.76575458 C16.4217959,2.76575458 16.6385801,2.6567619 16.7711374,2.48330037 L16.7711374,2.71740293 L17.1565761,2.71740293 L17.1565761,1.75319048 Z M21.6946059,2.57275092 L21.6946059,2.6202967 L21.7381231,2.6202967 C21.7479496,2.6202967 21.7559712,2.61828205 21.7619875,2.61425275 C21.7678031,2.61042491 21.7708112,2.60438095 21.7708112,2.59632234 C21.7708112,2.5884652 21.7678031,2.58262271 21.7619875,2.57859341 C21.7559712,2.57476557 21.7479496,2.57275092 21.7381231,2.57275092 L21.6946059,2.57275092 Z M21.7385242,2.53950916 C21.7611853,2.53950916 21.7788329,2.54454579 21.7910658,2.55482051 C21.8032988,2.56489377 21.8095155,2.57879487 21.8095155,2.59632234 C21.8095155,2.6110293 21.804502,2.62311722 21.7948761,2.63258608 C21.7850496,2.64205495 21.7710118,2.6480989 21.7529631,2.65011355 L21.8109193,2.71720147 L21.7655972,2.71720147 L21.7118523,2.65071795 L21.6946059,2.65071795 L21.6946059,2.71720147 L21.6569043,2.71720147 L21.6569043,2.53950916 L21.7385242,2.53950916 Z M21.727294,2.77824542 C21.7479496,2.77824542 21.767001,2.77441758 21.7848491,2.76656044 C21.8024966,2.7587033 21.8181388,2.74802564 21.8313744,2.73472894 C21.8448107,2.72123077 21.8552388,2.70551648 21.8630598,2.68718315 C21.8706804,2.66905128 21.8744906,2.64971062 21.8744906,2.62916117 C21.8744906,2.60841026 21.8706804,2.5890696 21.8630598,2.57093773 C21.8552388,2.55280586 21.8448107,2.53709158 21.8313744,2.52359341 C21.8181388,2.51009524 21.8024966,2.49961905 21.7848491,2.49196337 C21.767001,2.48410623 21.7479496,2.48027839 21.727294,2.48027839 C21.7064378,2.48027839 21.6867848,2.48410623 21.6687361,2.49196337 C21.650487,2.49961905 21.6346443,2.51009524 21.6212081,2.52359341 C21.6079724,2.53709158 21.5973437,2.55280586 21.5897232,2.57093773 C21.5821027,2.5890696 21.5782924,2.60841026 21.5782924,2.62916117 C21.5782924,2.64971062 21.5821027,2.66905128 21.5897232,2.68718315 C21.5973437,2.70551648 21.6079724,2.72123077 21.6212081,2.73472894 C21.6346443,2.74802564 21.650487,2.7587033 21.6687361,2.76656044 C21.6867848,2.77441758 21.7064378,2.77824542 21.727294,2.77824542 Z M21.727294,2.43776923 C21.7541664,2.43776923 21.7792339,2.44280586 21.8026972,2.45267766 C21.8261604,2.46275092 21.8468161,2.47645055 21.8644636,2.49377656 C21.8819106,2.51110256 21.8957479,2.53145055 21.9059755,2.55482051 C21.9160025,2.57798901 21.9212166,2.60276923 21.9212166,2.62916117 C21.9212166,2.65535165 21.9160025,2.68013187 21.9059755,2.70330037 C21.8957479,2.72646886 21.8819106,2.74661538 21.8644636,2.76394139 C21.8468161,2.7812674 21.8261604,2.7951685 21.8026972,2.80524176 C21.7792339,2.81551648 21.7541664,2.82055311 21.727294,2.82055311 C21.6998199,2.82055311 21.6743513,2.81551648 21.650487,2.80524176 C21.6266227,2.7951685 21.605967,2.7812674 21.5887205,2.76394139 C21.571073,2.74661538 21.5574362,2.72646886 21.5472086,2.70330037 C21.5371816,2.68013187 21.5321681,2.65535165 21.5321681,2.62916117 C21.5321681,2.60276923 21.5371816,2.57798901 21.5472086,2.55482051 C21.5574362,2.53145055 21.571073,2.51110256 21.5887205,2.49377656 C21.605967,2.47645055 21.6266227,2.46275092 21.650487,2.45267766 C21.6743513,2.44280586 21.6998199,2.43776923 21.727294,2.43776923 Z M18.6343587,0.740626374 C18.3935096,0.740626374 18.2206437,0.853648352 18.1123519,1.02308059 L18.1123519,0.788978022 L17.7307234,0.788978022 L17.7307234,2.71740293 L18.1163627,2.71740293 L18.1163627,1.63210989 C18.1163627,1.31339194 18.268974,1.10769597 18.5419095,1.10769597 C18.626337,1.10769597 18.7145748,1.11978388 18.8030132,1.15604762 L18.9315596,0.793007326 C18.8391104,0.75674359 18.7185856,0.740626374 18.6343587,0.740626374 Z M3.81662561,1.75319048 C3.81662561,1.39015018 4.0456428,1.09963736 4.4150383,1.09963736 C4.76839057,1.09963736 5.00141857,1.37806227 5.00141857,1.75319048 C5.00141857,2.12831868 4.76839057,2.40674359 4.4150383,2.40674359 C4.0456428,2.40674359 3.81662561,2.11623077 3.81662561,1.75319048 Z M5.37081407,1.75319048 L5.37081407,0.788978022 L4.98517479,0.788978022 L4.98517479,1.02308059 C4.8528181,0.849619048 4.63583334,0.740626374 4.36289779,0.740626374 C3.82484777,0.740626374 3.41514364,1.16430769 3.41514364,1.75319048 C3.41514364,2.34227473 3.82484777,2.76575458 4.36289779,2.76575458 C4.63583334,2.76575458 4.8528181,2.6567619 4.98517479,2.48330037 L4.98517479,2.71740293 L5.37081407,2.71740293 L5.37081407,1.75319048 Z M10.5670176,1.09963736 C10.8519856,1.09963736 11.0449055,1.28518681 11.0729811,1.58778755 L10.0367886,1.58778755 C10.0730865,1.30533333 10.2577842,1.09963736 10.5670176,1.09963736 Z M10.5750392,0.740626374 C10.0127238,0.740626374 9.62728505,1.14798901 9.62728505,1.74916117 C9.62728505,2.36242125 10.0289676,2.76575458 10.6031149,2.76575458 C10.8922942,2.76575458 11.1572081,2.69322711 11.3902361,2.49538828 L11.1852838,2.20910623 C11.0246509,2.33824542 10.8198991,2.41077289 10.6271797,2.41077289 C10.3580544,2.41077289 10.0851189,2.25745788 10.0367886,1.9105348 L11.4704523,1.9105348 C11.4744631,1.85815385 11.4784739,1.80557143 11.4784739,1.74916117 C11.4744631,1.14798901 11.1130892,0.740626374 10.5750392,0.740626374 Z M13.2735114,1.75319048 C13.2735114,2.33824542 13.662961,2.76575458 14.2814277,2.76575458 C14.570607,2.76575458 14.7633264,2.70128571 14.972089,2.53588278 L14.771348,2.23328205 C14.6147259,2.34630403 14.4500822,2.40674359 14.2693953,2.40674359 C13.9360971,2.40271429 13.6749934,2.14040659 13.6749934,1.75319048 C13.6749934,1.36597436 13.9360971,1.10366667 14.2693953,1.09963736 C14.4500822,1.09963736 14.6147259,1.16007692 14.771348,1.2730989 L14.972089,0.970498168 C14.7633264,0.805095238 14.570607,0.740626374 14.2814277,0.740626374 C13.662961,0.740626374 13.2735114,1.168337 13.2735114,1.75319048 Z M7.45081958,0.94229304 C7.25007859,0.809124542 6.9729317,0.740626374 6.66770914,0.740626374 C6.18200018,0.740626374 5.88479924,0.970498168 5.88479924,1.35388645 C5.88479924,1.66837363 6.10158346,1.85815385 6.53134164,1.91859341 L6.72807181,1.94679853 C6.95688846,1.97903297 7.08142408,2.05982051 7.08142408,2.16861172 C7.08142408,2.31789744 6.91276956,2.4148022 6.62760105,2.4148022 C6.3263893,2.4148022 6.12965912,2.32192674 5.98928081,2.21313553 L5.79235009,2.51573626 C6.07751861,2.72546154 6.41883844,2.76575458 6.62359024,2.76575458 C7.17788403,2.76575458 7.48290605,2.50767766 7.48290605,2.14040659 C7.48290605,1.80154212 7.25007859,1.62808059 6.82834204,1.56764103 L6.63161186,1.5394359 C6.45092492,1.51526007 6.29029202,1.45864835 6.29029202,1.32971062 C6.29029202,1.18848352 6.4429033,1.09157875 6.67171995,1.09157875 C6.91678037,1.09157875 7.15361864,1.18445421 7.27013264,1.25698168 L7.45081958,0.94229304 Z M12.8357316,0.740626374 C12.5948826,0.740626374 12.4222172,0.853648352 12.3137249,1.02308059 L12.3137249,0.788978022 L11.9322969,0.788978022 L11.9322969,2.71740293 L12.3177357,2.71740293 L12.3177357,1.63210989 C12.3177357,1.31339194 12.470347,1.10769597 12.743483,1.10769597 C12.82771,1.10769597 12.9161484,1.11978388 13.0043862,1.15604762 L13.1329326,0.793007326 C13.040684,0.75674359 12.9201592,0.740626374 12.8357316,0.740626374 Z M9.27393278,0.788978022 L8.57524986,0.788978022 L8.57524986,0.204124542 L8.18580032,0.204124542 L8.18580032,0.788978022 L7.78010699,0.788978022 L7.78010699,1.1399304 L8.18580032,1.1399304 L8.18580032,2.0517619 C8.18580032,2.49941758 8.34242241,2.76575458 8.83615299,2.76575458 C9.01683993,2.76575458 9.22580307,2.70934432 9.35836031,2.61646886 L9.2378355,2.27357509 C9.11329988,2.34630403 8.97673184,2.38256777 8.86844,2.38256777 C8.65947685,2.38256777 8.57524986,2.25342857 8.57524986,2.05982051 L8.57524986,1.1399304 L9.27393278,1.1399304 L9.27393278,0.788978022 Z M3.01767247,2.71740293 L3.01767247,1.5029707 C3.01767247,1.04725641 2.74453639,0.744655678 2.27868093,0.740626374 C2.03382104,0.73659707 1.780739,0.813153846 1.60406287,1.08352015 C1.47150563,0.869765568 1.26274303,0.740626374 0.969552896,0.740626374 C0.7648011,0.740626374 0.548016878,0.79703663 0.391394789,1.02308059 L0.391394789,0.788978022 L0.00595605126,0.788978022 L0.00595605126,2.71740293 L0.395405598,2.71740293 L0.395405598,1.61196337 C0.395405598,1.27712821 0.596146585,1.09963736 0.8813151,1.09963736 C1.15826146,1.09963736 1.31488354,1.28115751 1.31488354,1.60793407 L1.31488354,2.71740293 L1.70453363,2.71740293 L1.70453363,1.61196337 C1.70453363,1.27712821 1.91329624,1.09963736 2.19044313,1.09963736 C2.47561165,1.09963736 2.62802239,1.28115751 2.62802239,1.60793407 L2.62802239,2.71740293 L3.01767247,2.71740293 Z" id="Fill-1" fill="#333333" mask="url(#mask-2)"></path>
                        </g>
                        <mask id="mask-4" fill="white">
                            <use xlink:href="#path-3"></use>
                        </mask>
                        <g id="Clip-5"></g>
                        <polygon id="Fill-4" fill="#FF5F00" mask="url(#mask-4)" points="8.20571398 12.9548974 15.1554432 12.9548974 15.1554432 1.55075824 8.20571398 1.55075824"></polygon>
                        <path d="M8.92310732,7.25272711 C8.92310732,4.93910073 10.0014133,2.87871612 11.6805385,1.55065751 C10.4524288,0.579393773 8.90305328,-2.01465201e-05 7.21891461,-2.01465201e-05 C3.23197,-2.01465201e-05 6.01621339e-05,3.24719597 6.01621339e-05,7.25272711 C6.01621339e-05,11.2582582 3.23197,14.5054744 7.21891461,14.5054744 C8.90305328,14.5054744 10.4524288,13.9260604 11.6805385,12.9547967 C10.0014133,11.6267381 8.92310732,9.56635348 8.92310732,7.25272711" id="Fill-6" fill="#EB001B" mask="url(#mask-4)"></path>
                        <path d="M23.4707215,12.0155055 L23.4707215,11.4655055 L23.3571959,11.4655055 L23.2265637,11.843852 L23.0962424,11.4655055 L22.9827168,11.4655055 L22.9827168,12.0155055 L23.0626513,12.0155055 L23.0626513,11.6005449 L23.1851968,11.9584189 L23.2682416,11.9584189 L23.390476,11.5997575 L23.390476,12.0155055 L23.4707215,12.0155055 Z M22.7519332,12.0155055 L22.7519332,11.5592063 L22.8974948,11.5592063 L22.8974948,11.4662929 L22.5273701,11.4662929 L22.5273701,11.5592063 L22.6726207,11.5592063 L22.6726207,12.0155055 L22.7519332,12.0155055 Z" id="Fill-7" fill="#F79E1B" mask="url(#mask-4)"></path>
                        <path d="M23.3610168,7.25272711 C23.3610168,11.2582582 20.1289064,14.5054744 16.1421623,14.5054744 C14.4580236,14.5054744 12.9084476,13.9260604 11.6805385,12.9547967 C13.3596636,11.6267381 14.4379696,9.56635348 14.4379696,7.25272711 C14.4379696,4.93910073 13.3596636,2.87871612 11.6805385,1.55065751 C12.9084476,0.579393773 14.4580236,-2.01465201e-05 16.1421623,-2.01465201e-05 C20.1289064,-2.01465201e-05 23.3610168,3.24719597 23.3610168,7.25272711" id="Fill-8" fill="#F79E1B" mask="url(#mask-4)"></path>
                    </g>
                </g>
            </g>
        </g>
    </g>
</svg>