<?xml version="1.0" encoding="UTF-8"?>
<svg width="36px" height="22px" viewBox="0 0 36 22" version="1.1" xmlns="http://www.w3.org/2000/svg" xmlns:xlink="http://www.w3.org/1999/xlink">
    <!-- Generator: Sketch 52.5 (67469) - http://www.bohemiancoding.com/sketch -->
    <title>Group 8</title>
    <desc>Created with Sketch.</desc>
    <g id="P1---Conversions-pages-&amp;-coin-LP" stroke="none" stroke-width="1" fill="none" fill-rule="evenodd">
        <g id="Step-3:-Payment-" transform="translate(-784.000000, -225.000000)">
            <g id="Group-9" transform="translate(729.000000, 190.000000)">
                <g id="Group-8" transform="translate(55.000000, 35.000000)">
                    <rect id="Rectangle" stroke="#C8C8C8" stroke-width="0.5" fill="#FFFFFF" x="0.25" y="0.25" width="34.7876712" height="21.5" rx="1.85625"></rect>
                    <g id="Visa" transform="translate(2.205479, 6.600000)" fill="#16216A">
                        <path d="M20.9164338,0.811017775 C20.4772936,0.649162716 19.7898493,0.474529626 18.9300019,0.474529626 C16.7418907,0.474529626 15.1989362,1.55640292 15.1859246,3.10786884 C15.1729131,4.25363229 16.286486,4.89359867 17.1268161,5.27587477 C17.9888322,5.66666955 18.280508,5.91584115 18.2761708,6.26510733 C18.2696651,6.79965496 17.586558,7.04350239 16.9489914,7.04350239 C16.0642051,7.04350239 15.5936203,6.92211109 14.8649727,6.62502187 L14.5798026,6.49937123 L14.2686094,8.28510106 C14.7847348,8.50765177 15.7421689,8.70038707 16.7364692,8.70997059 C19.065539,8.70997059 20.5770489,7.64087533 20.5943977,5.98399065 C20.6019877,5.07781529 20.0132145,4.38673678 18.7348284,3.81704956 C17.9595561,3.4475515 17.4857184,3.2015744 17.4889713,2.827817 C17.4889713,2.49665303 17.8923297,2.14206267 18.758683,2.14206267 C19.4829933,2.13034947 20.0088773,2.28581552 20.416573,2.44660574 L20.6149993,2.53924646 L20.9164338,0.811017775" id="Fill-3"></path>
                        <path d="M26.5959811,0.621476982 L24.8849606,0.621476982 C24.3547394,0.621476982 23.9578867,0.764164995 23.7258472,1.28274009 L20.435006,8.59390348 L22.7619072,8.59390348 C22.7619072,8.59390348 23.1414111,7.61105993 23.2281549,7.39596307 C23.4818804,7.39596307 25.7415551,7.39915758 26.0646756,7.39915758 C26.1308177,7.67814459 26.3346656,8.59390348 26.3346656,8.59390348 L28.3904925,8.59390348 L26.5959811,0.621476982 L26.5959811,0.621476982 Z M23.8646372,5.76463445 C24.0489677,5.3035605 24.7472549,3.53273837 24.7472549,3.53273837 C24.7353276,3.55509993 24.9294168,3.07166442 25.040015,2.77138069 L25.1907323,3.4592647 C25.1907323,3.4592647 25.6157767,5.36425615 25.7046891,5.76463445 L23.8646372,5.76463445 L23.8646372,5.76463445 Z" id="Fill-4"></path>
                        <path d="M8.80809013,0.61934731 L6.63949629,6.059594 L6.40745675,4.95429432 C6.00518259,3.68075057 4.74631387,2.29859355 3.33998076,1.60751504 L5.32207553,8.58431995 L7.66632548,8.58219028 L11.1545087,0.61934731 L8.80809013,0.61934731" id="Fill-5"></path>
                        <path d="M4.62704121,0.615087966 L1.05319856,0.615087966 L1.02609113,0.780137533 C3.80514414,1.4403358 5.64519601,3.03758967 6.40745675,4.95429432 L5.63110015,1.28806426 C5.49664734,0.782267205 5.10846904,0.633190177 4.62704121,0.615087966" id="Fill-6"></path>
                        <polyline id="Fill-7" points="10.6665751 8.59070897 12.0512222 0.614023131 14.2675251 0.614023131 12.8796251 8.59070897 10.6665751 8.59070897"></polyline>
                    </g>
                </g>
            </g>
        </g>
    </g>
</svg>