<?xml version="1.0" standalone="no"?>
<!DOCTYPE svg PUBLIC "-//W3C//DTD SVG 20010904//EN"
 "http://www.w3.org/TR/2001/REC-SVG-20010904/DTD/svg10.dtd">
<svg version="1.0" xmlns="http://www.w3.org/2000/svg"
 width="1056.000000pt" height="1056.000000pt" viewBox="0 0 1056.000000 1056.000000"
 preserveAspectRatio="xMidYMid meet">
<metadata>
Created by potrace 1.11, written by Peter Selinger 2001-2013
</metadata>
<g transform="translate(0.000000,1056.000000) scale(0.100000,-0.100000)"
fill="#000000" stroke="none">
<path d="M9 9248 c0 -23 0 -7945 0 -7958 1 -10 8431 -15 8431 -5 0 2 -893 897
-1985 1989 -1091 1091 -1986 1988 -1987 1994 -2 6 894 909 1991 2007 l1995
1997 -4222 -3 c-4013 -4 -4222 -5 -4223 -21z m6861 -638 c0 -3 -762 -765
-1693 -1695 -932 -929 -1721 -1721 -1753 -1759 -32 -38 -70 -81 -84 -96 -14
-15 -52 -58 -85 -95 -33 -38 -82 -93 -110 -123 -27 -30 -59 -67 -71 -83 -11
-16 -24 -26 -27 -22 -4 3 -7 1 -7 -5 0 -7 -8 -20 -17 -30 -10 -10 -47 -51 -83
-92 -36 -40 -70 -78 -75 -84 -6 -6 -42 -47 -80 -91 -39 -44 -77 -87 -85 -95
-8 -8 -44 -49 -80 -90 -36 -41 -68 -77 -71 -80 -3 -3 -27 -30 -54 -60 -26 -30
-76 -86 -111 -125 -34 -38 -71 -80 -82 -93 -22 -25 -131 -148 -174 -196 -16
-17 -28 -34 -28 -39 0 -4 -4 -5 -10 -2 -5 3 -10 0 -10 -9 0 -8 -3 -16 -7 -18
-5 -1 -42 -41 -83 -88 -41 -46 -79 -90 -85 -96 -5 -6 -38 -43 -73 -82 -35 -39
-73 -82 -85 -95 -12 -13 -49 -54 -82 -91 -33 -38 -69 -78 -80 -90 -25 -29
-134 -152 -158 -180 -10 -12 -44 -50 -75 -85 -31 -35 -67 -74 -79 -88 -68 -77
-154 -173 -193 -216 -25 -28 -55 -62 -68 -76 -109 -125 -196 -223 -230 -260
-19 -20 -52 -57 -75 -83 -22 -27 -44 -48 -47 -48 -6 0 -6 5159 -1 6357 l1 202
48 3 c81 5 6162 3 6162 -2z"/>
<path d="M10499 8984 c-30 -31 -96 -100 -146 -152 -51 -53 -93 -97 -93 -97 0
-1 -39 -42 -87 -92 -49 -49 -164 -170 -258 -267 -93 -98 -205 -214 -248 -259
-43 -45 -142 -149 -220 -230 -78 -82 -178 -186 -222 -232 -44 -45 -156 -162
-250 -260 -93 -97 -197 -205 -230 -240 -83 -86 -409 -426 -486 -506 -35 -37
-140 -147 -234 -245 -93 -98 -205 -213 -247 -256 -43 -44 -78 -80 -78 -82 0
-1 -39 -43 -87 -92 -49 -50 -172 -178 -274 -285 -103 -107 -232 -241 -288
-299 -55 -58 -101 -110 -101 -115 0 -6 8 -18 18 -26 9 -9 91 -93 182 -189 91
-95 201 -210 245 -256 44 -45 147 -153 230 -239 82 -86 177 -185 210 -219 33
-35 141 -147 240 -251 99 -103 207 -216 240 -250 83 -87 375 -392 463 -484 40
-42 77 -80 83 -86 5 -5 18 -18 27 -28 9 -10 60 -63 112 -117 52 -54 169 -176
260 -271 91 -95 190 -198 220 -229 30 -32 129 -135 220 -230 91 -95 190 -198
220 -230 30 -31 138 -144 240 -250 102 -106 233 -243 292 -304 l108 -111 0
3768 c0 2072 -2 3767 -4 3767 -2 0 -28 -25 -57 -56z m-591 -3710 l0 -2146
-119 124 c-66 68 -177 183 -247 257 -70 73 -163 171 -207 216 -44 45 -152 158
-240 250 -88 92 -195 204 -238 249 -95 98 -405 421 -467 487 -48 50 -367 382
-460 479 -91 94 -89 81 -23 148 32 33 130 135 218 227 88 92 201 210 250 261
50 51 151 157 225 235 74 77 173 181 220 229 47 48 149 155 227 236 78 82 179
188 225 235 46 48 151 157 233 244 83 86 182 190 220 230 39 40 94 98 124 129
29 31 54 56 56 56 2 0 3 -966 3 -2146z"/>
</g>
</svg>
