<?xml version="1.0" encoding="UTF-8"?>
<svg width="10px" height="15px" viewBox="0 0 10 15" version="1.1" xmlns="http://www.w3.org/2000/svg" xmlns:xlink="http://www.w3.org/1999/xlink">
    <!-- Generator: Sketch 52.5 (67469) - http://www.bohemiancoding.com/sketch -->
    <title>Shape</title>
    <desc>Created with Sketch.</desc>
    <g id="P1---Conversions-pages-&amp;-coin-LP" stroke="none" stroke-width="1" fill="none" fill-rule="evenodd">
        <g id="Step-3:-Payment-" transform="translate(-1071.000000, -259.000000)" fill="#848484" fill-rule="nonzero">
            <g id="Group-9" transform="translate(729.000000, 190.000000)">
                <path d="M346.972656,69 C345.334613,69 344,70.4299685 344,72.1849888 L344,74.38644 C342.793863,75.3660975 342.000023,76.9010904 342,78.6428571 C341.999973,81.5951989 344.244464,84 347,84 C349.755536,84 352.000028,81.5951989 352,78.6428571 C351.999978,76.9016625 351.208001,75.3660975 350.001953,74.38644 L350.001953,72.1849888 C350.001953,70.4299685 348.665387,69 347.027344,69 L346.972656,69 Z M346.972656,70.0714286 L347.027344,70.0714286 C348.128426,70.0714286 349,71.0052632 349,72.1849888 L349,73.7398157 C348.38612,73.45074 347.711902,73.2857143 347,73.2857143 C346.288098,73.2857143 345.613674,73.45074 345,73.7398157 L345,72.1849888 C345,71.0052632 345.871574,70.0714286 346.972656,70.0714286 Z M347,74.3550504 L347,74.3571429 C347.244022,74.3571429 347.479142,74.3879164 347.710938,74.4324771 C347.791943,74.4484736 347.871334,74.4705043 347.951172,74.4910714 C348.098713,74.5299193 348.242267,74.5778411 348.382812,74.63337 C348.47173,74.6687904 348.561945,74.7020046 348.648438,74.74428 C348.809127,74.8219768 348.962905,74.9129604 349.111328,75.0121371 C349.147832,75.0361318 349.18683,75.0560571 349.222656,75.0811939 C349.232246,75.0871202 349.242017,75.0927037 349.251953,75.097935 C350.307576,75.8684989 350.999982,77.1644218 351,78.6407646 C351.000021,81.0140411 349.215093,82.9264789 347,82.9264789 C344.784907,82.9264789 342.999978,81.0140411 343,78.6407646 C343.000019,77.1692207 343.689104,75.8778975 344.738281,75.1063061 C344.752354,75.0979501 344.766041,75.0888713 344.779297,75.0791014 C344.833588,75.0402536 344.893421,75.013125 344.949219,74.9765625 C345.077134,74.8942961 345.205027,74.8131 345.341797,74.7463725 C345.435268,74.7006696 345.532601,74.6652557 345.628906,74.6270925 C345.763282,74.5745336 345.900258,74.5276339 346.041016,74.4910714 C346.12393,74.4693621 346.206822,74.4463811 346.291016,74.4303846 C346.521654,74.3858239 346.757223,74.3550504 347,74.3550504 Z M347,76.5 C346.177598,76.5 345.5,77.2260911 345.5,78.1071429 C345.5,78.5477261 345.668552,78.9529961 345.939453,79.2434432 C346.095043,79.4100332 346.287857,79.5350368 346.5,79.6159318 L346.5,81.8571429 L347.5,81.8571429 L347.5,79.6159318 C347.712728,79.5348075 347.906911,79.4100332 348.0625,79.2434432 C348.333401,78.9529961 348.5,78.5477261 348.5,78.1071429 C348.5,77.2260911 347.822402,76.5 347,76.5 Z M347,77.5714286 C347.285599,77.5714286 347.5,77.8011568 347.5,78.1071429 C347.5,78.2601354 347.444109,78.3907682 347.353516,78.4880025 C347.263019,78.5851221 347.142767,78.6428571 347,78.6428571 C346.857233,78.6428571 346.736976,78.5845511 346.646484,78.4880025 C346.555881,78.3908818 346.5,78.2601354 346.5,78.1071429 C346.5,77.8011568 346.714401,77.5714286 347,77.5714286 Z" id="Shape"></path>
            </g>
        </g>
    </g>
</svg>
