<svg id="Layer_2" data-name="Layer 2" xmlns="http://www.w3.org/2000/svg" viewBox="0 0 692.64 175.3"><defs><style>.cls-1{fill:#363635;}</style></defs><title>Artboard 2 copy 5</title><path class="cls-1" d="M52.5,13.12V31.27s-3.17-.66-4.71,0c-1.1.47-4.61,2.26-5.2,6.28s1.18,28.78.49,33.36c-.78,5.19-2.06,12.66-12.56,16-.31.07-.45.25-.16.38s8.34,1.91,11,9.21c4.85,13.33-2.61,39.42,3.71,44.87,2.78,2.4,7.25,1.79,7.43,1.79v17.94s-9,.91-13.43-.81-14.22-3.63-14.22-22.07c0,0,1.72-28.52.61-33.86s-4-9.27-10.38-9.17V78.95s4.23-.4,5.54-1.41,4.23-.81,5.14-10.58c-.2-7.56-2-26.5-1.41-32s1.31-17.13,12.7-20.66C46.12,11.83,49.5,13.19,52.5,13.12Z"/><path class="cls-1" d="M642.2,13.12V31.27s3.17-.66,4.71,0c1.1.47,4.61,2.26,5.2,6.28s-1.18,28.78-.49,33.36c.78,5.19,2.06,12.66,12.56,16,.31.07.45.25.16.38s-8.34,1.91-11,9.21c-4.85,13.33,2.61,39.42-3.71,44.87-2.78,2.4-7.25,1.79-7.43,1.79v17.94s9,.91,13.43-.81,14.22-3.63,14.22-22.07c0,0-1.72-28.52-.61-33.86s4-9.27,10.38-9.17V78.95s-4.23-.4-5.54-1.41-4.23-.81-5.14-10.58c.2-7.56,2-26.5,1.41-32S669,17.78,657.64,14.25C648.58,11.83,645.2,13.19,642.2,13.12Z"/><path class="cls-1" d="M70.18,49.68H95.06s1,10,1.05,10.11.63.6.89.39,8.1-12.26,22.94-12.26c19.87,0,22.66,12.9,22.83,13a.69.69,0,0,0,.78-.11c.16-.22,9-14,26.61-12.9C188,48.73,194.51,60.63,196,74.54s.33,57,.33,57h-29s0-48.09-.1-48.85-1.2-10.85-9.42-10.85-9.89,9.66-9.89,11.28v48.42H119.22S119,84.86,119,83.14,117.79,72,110,72,99.57,79.8,99.57,83.14v48.42H70.85Z"/><path class="cls-1" d="M272.51,72.94l4.13-22s-20.3-7.18-41.27,1.27-25,26.71-25,39.94c0,9.71,3.2,29.56,25.07,37.88a59.44,59.44,0,0,0,41.23,0l-3.14-22.08s-11.42,3.3-17.07,1.91-16-5.1-16-20.11c0-13.39,9.82-18.73,16-18.83C267.63,70.34,272.51,72.94,272.51,72.94Z"/><path class="cls-1" d="M282.45,49.61H292.5V34.41l28.92-7.92V49.61h16.91V71.72h-17v27.2s.77,7.09,5.26,9,11.29.3,11.29.3l.06,23S323,134,315.74,133c-5.35-.72-12.14-1.43-18.69-10.94-4.41-6.4-4.38-16.5-4.38-16.5l-.12-33.94-10.11.06Z"/><path class="cls-1" d="M383.89,101.41s-2.67-5.82-2.67-11.11a35,35,0,0,1,1.34-9.51h17.1s.11-13.36-11.65-13.36-19.4,14.64-15.07,32.49,34.91,14,45.84,8.92l4.17,20a96.07,96.07,0,0,1-35.5,5c-17.93-.74-41.1-12.18-41.1-43.26,0-18,13.07-43.15,43.67-43.15,28.64,0,35.09,26.12,35.89,28.51s3.18,12.54,0,25.38Z"/><path class="cls-1" d="M442.55,13.12h30.08s-.2,69.71-.14,69.8.32.19.42.08,18.51-33.23,18.51-33.23h35.43s-27.68,32.59-27.78,32.73-.16.31,0,.39,32,48.7,32,48.7H494.39c-.2,0-15.91-31.17-15.91-31.17l-6,7.83-.09,23.34H442.55Z"/><path class="cls-1" d="M537.72,13.12h30.08s-.2,69.71-.14,69.8.32.19.42.08,18.51-33.23,18.51-33.23H622s-27.68,32.59-27.78,32.73-.16.31,0,.39,32,48.7,32,48.7H589.57c-.2,0-15.91-31.17-15.91-31.17l-6,7.83-.09,23.34H537.72Z"/></svg>